<mxfile host="app.diagrams.net" modified="2023-02-21T05:31:47.861Z" agent="5.0 (Windows NT 10.0; Win64; x64) AppleWebKit/537.36 (KHTML, like Gecko) Chrome/110.0.0.0 Safari/537.36" etag="5zk7J_n3vu9pg1DN7iYD" version="20.8.18" type="github">
  <diagram name="第 1 页" id="6VODn49KCvw7kJNHIjJo">
    <mxGraphModel dx="1434" dy="764" grid="1" gridSize="10" guides="1" tooltips="1" connect="1" arrows="1" fold="1" page="1" pageScale="1" pageWidth="827" pageHeight="1169" math="0" shadow="0">
      <root>
        <mxCell id="0" />
        <mxCell id="1" parent="0" />
        <mxCell id="IE9bk7GomRztHWEX5Cet-3" value="" style="edgeStyle=orthogonalEdgeStyle;rounded=0;orthogonalLoop=1;jettySize=auto;html=1;" edge="1" parent="1" source="IE9bk7GomRztHWEX5Cet-1" target="IE9bk7GomRztHWEX5Cet-2">
          <mxGeometry relative="1" as="geometry" />
        </mxCell>
        <mxCell id="IE9bk7GomRztHWEX5Cet-1" value="AnyShare文件等" style="rounded=1;whiteSpace=wrap;html=1;fillColor=#e1d5e7;strokeColor=#9673a6;" vertex="1" parent="1">
          <mxGeometry x="354" y="180" width="120" height="60" as="geometry" />
        </mxCell>
        <mxCell id="IE9bk7GomRztHWEX5Cet-5" style="edgeStyle=orthogonalEdgeStyle;rounded=0;orthogonalLoop=1;jettySize=auto;html=1;" edge="1" parent="1" source="IE9bk7GomRztHWEX5Cet-2" target="IE9bk7GomRztHWEX5Cet-4">
          <mxGeometry relative="1" as="geometry" />
        </mxCell>
        <mxCell id="IE9bk7GomRztHWEX5Cet-2" value="MongoDB" style="whiteSpace=wrap;html=1;fillColor=#f8cecc;strokeColor=#b85450;rounded=1;direction=west;" vertex="1" parent="1">
          <mxGeometry x="354" y="290" width="120" height="60" as="geometry" />
        </mxCell>
        <mxCell id="IE9bk7GomRztHWEX5Cet-4" value="" style="whiteSpace=wrap;html=1;fillColor=#f8cecc;strokeColor=#b85450;rounded=1;direction=west;" vertex="1" parent="1">
          <mxGeometry x="239" y="410" width="349" height="230" as="geometry" />
        </mxCell>
        <mxCell id="IE9bk7GomRztHWEX5Cet-6" value="mongodb" style="text;html=1;align=center;verticalAlign=middle;resizable=0;points=[];autosize=1;strokeColor=#666666;fillColor=#f5f5f5;fontColor=#333333;" vertex="1" parent="1">
          <mxGeometry x="260" y="410" width="70" height="30" as="geometry" />
        </mxCell>
        <mxCell id="IE9bk7GomRztHWEX5Cet-7" value="" style="rounded=1;whiteSpace=wrap;html=1;absoluteArcSize=1;arcSize=14;strokeWidth=2;fillColor=#dae8fc;strokeColor=#6c8ebf;" vertex="1" parent="1">
          <mxGeometry x="249" y="440" width="240" height="190" as="geometry" />
        </mxCell>
        <mxCell id="IE9bk7GomRztHWEX5Cet-8" value="" style="rounded=1;whiteSpace=wrap;html=1;absoluteArcSize=1;arcSize=14;strokeWidth=2;fillColor=#dae8fc;strokeColor=#6c8ebf;" vertex="1" parent="1">
          <mxGeometry x="259" y="450" width="240" height="190" as="geometry" />
        </mxCell>
        <mxCell id="IE9bk7GomRztHWEX5Cet-9" value="Collection" style="text;html=1;align=center;verticalAlign=middle;resizable=0;points=[];autosize=1;strokeColor=#666666;fillColor=#f5f5f5;fontColor=#333333;" vertex="1" parent="1">
          <mxGeometry x="329" y="465" width="80" height="30" as="geometry" />
        </mxCell>
        <mxCell id="IE9bk7GomRztHWEX5Cet-10" value="Document" style="rounded=0;whiteSpace=wrap;html=1;fillColor=#d5e8d4;strokeColor=#82b366;" vertex="1" parent="1">
          <mxGeometry x="290" y="510" width="180" height="90" as="geometry" />
        </mxCell>
        <mxCell id="IE9bk7GomRztHWEX5Cet-11" value="Field1" style="text;html=1;align=center;verticalAlign=middle;resizable=0;points=[];autosize=1;strokeColor=none;fillColor=none;" vertex="1" parent="1">
          <mxGeometry x="300" y="570" width="60" height="30" as="geometry" />
        </mxCell>
        <mxCell id="IE9bk7GomRztHWEX5Cet-12" value="Field2" style="text;html=1;align=center;verticalAlign=middle;resizable=0;points=[];autosize=1;strokeColor=none;fillColor=none;" vertex="1" parent="1">
          <mxGeometry x="370" y="570" width="60" height="30" as="geometry" />
        </mxCell>
      </root>
    </mxGraphModel>
  </diagram>
</mxfile>
